<svg version="1.2" xmlns="http://www.w3.org/2000/svg" viewBox="0 0 260 122" width="260" height="122"><style>.a{fill:#0d0679}</style><path class="a" d="m44.4 14.1q2.5 0 4.2 1.8 1.8 1.8 1.8 4.3 0 2.4-1.8 4.1-1.7 1.8-4.2 1.8-2.4 0-4.2-1.8-1.7-1.7-1.7-4.1 0-2.5 1.7-4.3 1.8-1.8 4.2-1.8zm14.1 0q2.5 0 4.2 1.8 1.7 1.8 1.7 4.3 0 2.4-1.7 4.2-1.7 1.7-4.2 1.7-2.5 0-4.2-1.8-1.8-1.7-1.8-4.1 0-2.5 1.8-4.3 1.7-1.8 4.2-1.8zm0 62.5q-3.7 1-7.3 1-10.1 0-16.2-7.3-5.1-6.2-5.1-15.2 0-10.3 6.6-16.3 5.7-5.4 14.9-5.4 7.1 0 11.8 3.4 6.9 4.6 6.9 13.7v24.3q0 11.5-7.4 17.8-7.1 6.5-18.9 6.5h-9.1q-12.1 0-19.1-6.4-7.2-6.3-7.2-17.9v-10.3l5.7-4.6h5.6v13.9q0 8.7 4.3 12.3 4.5 3.5 15.2 3.5 9.5 0 13.6-2.4 5-3 5.7-10.6zm0.3-9.5v-16.6q0-3.4-2.1-5.7-2.3-2-5.4-2-4.6 0-7.4 3.2-2.9 3.4-2.9 9.3 0 5.9 3.2 9.4 3.1 3.5 8.4 3.5 3 0 6.2-1.1zm60-56.3h11.3v54.4q0 1.6-0.1 2.4h4.8v9.4h-3.6l-3.1-3.8h-0.3q-1.6 2-3.7 2.9-2 0.9-3.9 0.9h-37.2l-4.6-5.7v-3.7h22.5l-15.3-45.4h10.5l15.4 45.4h5q1 0 1.7-0.8 0.6-0.7 0.6-1.5zm29.2 42.5l-1-2.6q3.1-9.1 11.4-13.8 6.2-3.5 13.4-3.5 7.3 0 13.3 3.9 7.4 4.5 10.7 13.4l-1.1 2.6q-3.7 1.6-7.8 5.7-3.9 4.3-5.1 8.5h14.9v9.4h-20.3q-2.6 0-4.7-2.4h-0.5q-2.1 2.4-4.9 2.4h-32.2v-9.4h26.8q-1.1-3.8-4.7-8-4-4.5-8.2-6.2zm36-3.3q-2.3-3.9-6.1-5.8-2.8-1.4-6.3-1.4-3.7 0-7.1 1.6-3.7 1.9-5.7 5.6 3.2 1.3 6.7 5.5 3.8 4.3 5.7 9.4h0.4q1.7-5.1 6-9.9 3.4-3.8 6.4-5zm28.6 15.2v-14.8q0-8.8 6.1-13.3 4.8-3.7 13.1-3.7 8.2 0 13.8 4.8 7.1 6.1 7.1 17.3 0 10.5-5.6 17.5-5.5 6.7-14.2 6.7-7.6 0-12.1-5.7-2.9 2.9-7.2 2.9h-17.6v-9.4h14.2q1 0 1.8-0.7 0.6-0.7 0.6-1.6zm11.2-14.8v16.1q3.4 3.7 7.8 3.7 4.4 0 7.2-3.8 2.7-3.9 2.7-10 0-6.6-3-10.4-2.8-3.3-7.2-3.3-3.3 0-5.3 2.2-2.2 2-2.2 5.5z"/></svg>